# xmcd
#
# Track frame offsets: 
#        150
#        19340
#        35927
#        52100
#        64057
#        73200
#        97952
#        108285
#        120157
#        133467
#        146457
#        160322
#
# Disc length: 2317 seconds
#
# Revision: 2
# Processed by: cddbd v1.5.2PL0 Copyright (c) Steve Scherf et al.
# Submitted via: ExactAudioCopy v1.0b3
#
DISCID=b3090b0c
DTITLE=Ray Charles - Best Selection
DYEAR=1900
DGENRE=Blues
TTITLE0=I Can't Stop Loving You
TTITLE1=Georgia On My Mind
TTITLE2=Your Cheating Heart
TTITLE3=Hallelujah I Love Her So
TTITLE4=Hit The Road Jack
TTITLE5=What'd I say
TTITLE6=Yes Indeed
TTITLE7=Lonely Avenue
TTITLE8=I Got A Woman
TTITLE9=Unchain My Heart
TTITLE10=A Fool For You
TTITLE11=You Are My Sunshine
EXTD=
EXTT0=
EXTT1=
EXTT2=
EXTT3=
EXTT4=
EXTT5=
EXTT6=
EXTT7=
EXTT8=
EXTT9=
EXTT10=
EXTT11=
PLAYORDER=
